<mxfile host="app.diagrams.net" agent="Mozilla/5.0 (Macintosh; Intel Mac OS X 10_15_7) AppleWebKit/537.36 (KHTML, like Gecko) Chrome/132.0.0.0 Safari/537.36" version="26.0.16">
  <diagram name="Page-1" id="oe7yYhQaCp3UygMnKCcn">
    <mxGraphModel dx="1687" dy="958" grid="1" gridSize="10" guides="1" tooltips="1" connect="1" arrows="1" fold="1" page="1" pageScale="1" pageWidth="850" pageHeight="1100" math="0" shadow="0">
      <root>
        <mxCell id="0" />
        <mxCell id="1" parent="0" />
        <mxCell id="0FgzSbdBfpgP0lzzixxT-1" value="" style="whiteSpace=wrap;html=1;aspect=fixed;strokeWidth=3;" vertex="1" parent="1">
          <mxGeometry x="300" y="150" width="420" height="420" as="geometry" />
        </mxCell>
        <mxCell id="0FgzSbdBfpgP0lzzixxT-4" value="&lt;meta charset=&quot;utf-8&quot;&gt;&lt;span style=&quot;color: rgb(0, 0, 0); font-family: Helvetica; font-size: 30px; font-style: normal; font-variant-ligatures: normal; font-variant-caps: normal; font-weight: 400; letter-spacing: normal; orphans: 2; text-align: center; text-indent: 0px; text-transform: none; widows: 2; word-spacing: 0px; -webkit-text-stroke-width: 0px; white-space: nowrap; background-color: rgb(255, 255, 255); text-decoration-thickness: initial; text-decoration-style: initial; text-decoration-color: initial; display: inline !important; float: none;&quot;&gt;Radiaton&lt;/span&gt;" style="shape=flexArrow;endArrow=classic;html=1;rounded=0;entryX=0;entryY=0;entryDx=0;entryDy=0;exitX=1;exitY=1;exitDx=0;exitDy=0;" edge="1" parent="1" source="0FgzSbdBfpgP0lzzixxT-1" target="0FgzSbdBfpgP0lzzixxT-12">
          <mxGeometry width="50" height="50" relative="1" as="geometry">
            <mxPoint x="509.5" y="470" as="sourcePoint" />
            <mxPoint x="509.5" y="660" as="targetPoint" />
          </mxGeometry>
        </mxCell>
        <mxCell id="0FgzSbdBfpgP0lzzixxT-7" value="&lt;span style=&quot;font-size: 40px;&quot;&gt;T1&lt;/span&gt;" style="text;html=1;align=center;verticalAlign=middle;whiteSpace=wrap;rounded=0;" vertex="1" parent="1">
          <mxGeometry x="610" y="190" width="60" height="30" as="geometry" />
        </mxCell>
        <mxCell id="0FgzSbdBfpgP0lzzixxT-9" value="" style="endArrow=classic;startArrow=classic;html=1;rounded=0;exitX=0.268;exitY=0.993;exitDx=0;exitDy=0;exitPerimeter=0;entryX=0.275;entryY=-0.002;entryDx=0;entryDy=0;entryPerimeter=0;strokeWidth=2;fontSize=3;" edge="1" parent="1" source="0FgzSbdBfpgP0lzzixxT-1" target="0FgzSbdBfpgP0lzzixxT-1">
          <mxGeometry width="50" height="50" relative="1" as="geometry">
            <mxPoint x="440" y="430" as="sourcePoint" />
            <mxPoint x="410" y="140" as="targetPoint" />
          </mxGeometry>
        </mxCell>
        <mxCell id="0FgzSbdBfpgP0lzzixxT-10" value="&lt;span style=&quot;font-family: Aptos; color: rgb(64, 64, 64); font-style: italic;&quot;&gt;&lt;font style=&quot;&quot;&gt;&lt;b style=&quot;&quot;&gt;&lt;font style=&quot;font-size: 40px;&quot;&gt;l&lt;/font&gt;&lt;span style=&quot;font-size: 60px;&quot;&gt;&amp;nbsp;&lt;/span&gt;&lt;/b&gt;&lt;/font&gt;&lt;/span&gt;" style="text;html=1;align=center;verticalAlign=middle;whiteSpace=wrap;rounded=0;" vertex="1" parent="1">
          <mxGeometry x="360" y="200" width="60" height="30" as="geometry" />
        </mxCell>
        <mxCell id="0FgzSbdBfpgP0lzzixxT-11" value="&lt;span style=&quot;font-family: Aptos; color: rgb(64, 64, 64); font-style: normal;&quot;&gt;ε1&lt;/span&gt;" style="text;whiteSpace=wrap;html=1;fontSize=40;" vertex="1" parent="1">
          <mxGeometry x="490" y="270" width="40" height="40" as="geometry" />
        </mxCell>
        <mxCell id="0FgzSbdBfpgP0lzzixxT-12" value="" style="whiteSpace=wrap;html=1;aspect=fixed;strokeWidth=3;" vertex="1" parent="1">
          <mxGeometry x="930" y="660.84" width="420" height="420" as="geometry" />
        </mxCell>
        <mxCell id="0FgzSbdBfpgP0lzzixxT-13" value="&lt;span style=&quot;font-size: 40px;&quot;&gt;T2&lt;/span&gt;" style="text;html=1;align=center;verticalAlign=middle;whiteSpace=wrap;rounded=0;" vertex="1" parent="1">
          <mxGeometry x="1240" y="700.84" width="60" height="30" as="geometry" />
        </mxCell>
        <mxCell id="0FgzSbdBfpgP0lzzixxT-14" value="" style="endArrow=classic;startArrow=classic;html=1;rounded=0;exitX=0.268;exitY=0.993;exitDx=0;exitDy=0;exitPerimeter=0;entryX=0.275;entryY=-0.002;entryDx=0;entryDy=0;entryPerimeter=0;strokeWidth=2;fontSize=3;" edge="1" parent="1" source="0FgzSbdBfpgP0lzzixxT-12" target="0FgzSbdBfpgP0lzzixxT-12">
          <mxGeometry width="50" height="50" relative="1" as="geometry">
            <mxPoint x="1070" y="940.8400000000001" as="sourcePoint" />
            <mxPoint x="1040" y="650.84" as="targetPoint" />
          </mxGeometry>
        </mxCell>
        <mxCell id="0FgzSbdBfpgP0lzzixxT-15" value="&lt;span style=&quot;font-family: Aptos; color: rgb(64, 64, 64); font-style: italic;&quot;&gt;&lt;font style=&quot;&quot;&gt;&lt;b style=&quot;&quot;&gt;&lt;font style=&quot;font-size: 40px;&quot;&gt;l&lt;/font&gt;&lt;span style=&quot;font-size: 60px;&quot;&gt;&amp;nbsp;&lt;/span&gt;&lt;/b&gt;&lt;/font&gt;&lt;/span&gt;" style="text;html=1;align=center;verticalAlign=middle;whiteSpace=wrap;rounded=0;" vertex="1" parent="1">
          <mxGeometry x="990" y="710.84" width="60" height="30" as="geometry" />
        </mxCell>
        <mxCell id="0FgzSbdBfpgP0lzzixxT-16" value="&lt;span style=&quot;font-family: Aptos; color: rgb(64, 64, 64); font-style: normal;&quot;&gt;ε2&lt;/span&gt;" style="text;whiteSpace=wrap;html=1;fontSize=40;" vertex="1" parent="1">
          <mxGeometry x="1120" y="780.84" width="40" height="40" as="geometry" />
        </mxCell>
        <mxCell id="0FgzSbdBfpgP0lzzixxT-17" value="&lt;font style=&quot;font-size: 40px;&quot;&gt;&lt;span style=&quot;font-style: normal;&quot;&gt;ρ&lt;font color=&quot;#404040&quot;&gt;1&lt;/font&gt;&lt;/span&gt;&lt;/font&gt;" style="text;whiteSpace=wrap;html=1;" vertex="1" parent="1">
          <mxGeometry x="530" y="400" width="60" height="50" as="geometry" />
        </mxCell>
        <mxCell id="0FgzSbdBfpgP0lzzixxT-18" value="&lt;font style=&quot;font-size: 40px;&quot;&gt;&lt;span style=&quot;font-style: normal;&quot;&gt;ρ&lt;font color=&quot;#404040&quot;&gt;2&lt;/font&gt;&lt;/span&gt;&lt;/font&gt;" style="text;whiteSpace=wrap;html=1;" vertex="1" parent="1">
          <mxGeometry x="1240" y="930" width="60" height="50" as="geometry" />
        </mxCell>
      </root>
    </mxGraphModel>
  </diagram>
</mxfile>
